<svg width="412" height="122" viewBox="0 0 412 122" fill="none" xmlns="http://www.w3.org/2000/svg">
<path fill-rule="evenodd" clip-rule="evenodd" d="M50.9009 61.6698V10.4299H70.5812V111.43H49.9121L29.5282 59.2519V111.43H10V10.4299H30.6596L50.9009 61.6698ZM142.486 111.43H81.9045V85.4715V79.9587H104.409V92.2029H118.28V76.1965L81.9045 50.238V10.4299H142.628V18.9022H142.486V40.4214H120.543V29.7924H119.839H114.173H105.112V42.9747L142.486 69.4747V111.43ZM164.001 103.799L162.318 105.733C164.012 107.177 166.165 107.944 168.374 107.89C171.692 107.89 173.651 106.227 173.651 103.799C173.651 101.372 171.712 100.549 168.783 99.9305C166.692 99.4759 165.883 99.2051 165.883 98.2379C165.883 97.4642 166.635 96.8452 167.88 96.8452C169.287 96.8882 170.644 97.39 171.75 98.2766L173.271 96.2843C171.763 95.0673 169.88 94.4334 167.956 94.495C164.99 94.495 162.936 96.0425 162.936 98.5184C162.936 100.994 164.98 101.768 167.832 102.387C169.896 102.842 170.685 103.228 170.685 104.041C170.685 104.853 169.934 105.492 168.47 105.492C166.83 105.481 165.248 104.882 164.001 103.799ZM177.445 94.7465H180.373V107.648H177.445V94.7465ZM187.779 94.7465H184.87V107.648H187.779V99.3115L194.33 107.648H197.248V94.7465H194.33V103.083L187.779 94.7465ZM201.204 101.188C201.204 97.5609 204.522 94.5144 208.42 94.5144C210.39 94.5056 212.284 95.2835 213.696 96.6808L211.586 98.4797C211.182 98.0326 210.693 97.6741 210.149 97.4263C209.605 97.1784 209.016 97.0465 208.42 97.0387C207.335 97.0387 206.296 97.4768 205.529 98.2567C204.762 99.0367 204.331 100.094 204.331 101.197C204.331 102.3 204.762 103.358 205.529 104.138C206.296 104.918 207.335 105.356 208.42 105.356C209.016 105.348 209.605 105.216 210.149 104.969C210.693 104.721 211.182 104.362 211.586 103.915L213.696 105.714C212.278 107.1 210.386 107.873 208.42 107.871C204.522 107.871 201.204 104.853 201.204 101.188ZM220.104 99.8144V97.2418H227.634V94.7465H217.176V107.648H227.634V105.153H220.104V102.31H226.921V99.8144H220.104ZM238.244 105.395L243.245 101.71C244.871 100.491 245.384 99.65 245.384 98.7408C245.384 97.677 244.434 97.0387 243.321 97.0387C242.68 97.0623 242.052 97.2267 241.479 97.5205C240.907 97.8143 240.403 98.2306 240.003 98.7408L238.102 97.0387C238.73 96.2368 239.531 95.5923 240.442 95.1547C241.354 94.7171 242.352 94.498 243.359 94.5144C246.212 94.5144 248.341 96.2069 248.341 98.6345C248.341 100.356 247.552 101.691 245.175 103.325L242.703 105.153H248.455V107.648H238.244V105.395ZM258.096 94.5144C254.512 94.5144 252.002 97.3191 252.002 101.188C252.002 105.114 254.521 107.871 258.096 107.871C261.671 107.871 264.2 105.095 264.2 101.188C264.2 97.2805 261.68 94.5144 258.096 94.5144ZM258.096 97.0387C259.931 97.0387 261.195 98.7602 261.195 101.188H261.214C261.214 103.615 259.921 105.356 258.096 105.356C256.27 105.356 254.987 103.615 254.987 101.188C254.987 98.7602 256.261 97.0387 258.096 97.0387ZM267.66 101.188C267.66 97.3191 270.17 94.5144 273.745 94.5144C277.32 94.5144 279.858 97.2805 279.858 101.188C279.858 105.095 277.329 107.871 273.745 107.871C270.161 107.871 267.66 105.114 267.66 101.188ZM276.854 101.188C276.854 98.7602 275.589 97.0387 273.745 97.0387C271.901 97.0387 270.646 98.7602 270.646 101.188C270.646 103.615 271.929 105.356 273.745 105.356C275.561 105.356 276.854 103.615 276.854 101.188ZM283.148 105.018H289.803V107.687H292.722V105.056H294.528V102.726H292.722V94.8045H289.185L282.901 102.919L283.148 105.018ZM289.803 97.6963V102.687H286L289.803 97.6963ZM164.277 69.8036H171.189C174.687 69.8036 177.416 72.0861 177.416 75.3164C177.416 78.5467 174.687 80.8292 171.189 80.8292H166.235V87.0189H164.334L164.277 69.8036ZM170.808 78.9722C173.565 78.9722 175.438 77.6182 175.438 75.3164C175.438 73.0145 173.537 71.6605 170.808 71.6605H166.197V78.9722H170.808ZM198.884 87.0189V69.8036H196.963V77.3184H186.99V69.8036H185.088V87.0189H186.99V79.1753H196.982V87.0189H198.884ZM207.041 78.3919C207.064 76.6549 207.59 74.9633 208.555 73.5299C209.52 72.0966 210.88 70.9853 212.464 70.3359C214.048 69.6866 215.785 69.528 217.457 69.8802C219.13 70.2323 220.662 71.0795 221.863 72.3153C223.063 73.551 223.877 75.1201 224.203 76.8254C224.53 78.5306 224.353 80.2959 223.696 81.8993C223.038 83.5027 221.93 84.8726 220.509 85.8369C219.089 86.8011 217.42 87.3167 215.712 87.3188C213.406 87.2808 211.206 86.3248 209.585 84.6559C207.964 82.987 207.051 80.7381 207.041 78.3919ZM222.405 78.3919C222.351 77.05 221.909 75.754 221.136 74.6657C220.362 73.5774 219.29 72.745 218.055 72.2723C216.819 71.7997 215.473 71.7077 214.187 72.0079C212.9 72.3081 211.728 72.9871 210.818 73.9603C209.908 74.9335 209.3 76.1577 209.07 77.4802C208.84 78.8027 208.998 80.1649 209.524 81.3968C210.05 82.6287 210.921 83.6757 212.028 84.4072C213.135 85.1387 214.43 85.5223 215.75 85.5102C217.551 85.4373 219.254 84.6532 220.497 83.3242C221.739 81.9952 222.424 80.2259 222.405 78.3919ZM231.656 71.6605H237.36V87.0189H239.262V71.6605H244.966V69.8036H231.656V71.6605ZM251.231 78.3919C251.254 76.6549 251.781 74.9633 252.746 73.5299C253.71 72.0966 255.07 70.9853 256.654 70.3359C258.238 69.6866 259.976 69.528 261.648 69.8802C263.32 70.2323 264.853 71.0795 266.053 72.3153C267.253 73.551 268.068 75.1201 268.394 76.8254C268.72 78.5306 268.543 80.2959 267.886 81.8993C267.229 83.5027 266.12 84.8726 264.7 85.8369C263.279 86.8011 261.61 87.3167 259.902 87.3188C257.596 87.2808 255.397 86.3248 253.776 84.6559C252.154 82.987 251.241 80.7381 251.231 78.3919ZM266.595 78.3919C266.541 77.05 266.1 75.754 265.326 74.6657C264.552 73.5774 263.481 72.745 262.245 72.2723C261.009 71.7997 259.664 71.7077 258.377 72.0079C257.09 72.3081 255.919 72.9871 255.009 73.9603C254.099 74.9335 253.491 76.1577 253.261 77.4802C253.03 78.8027 253.188 80.1649 253.714 81.3968C254.24 82.6287 255.111 83.6757 256.218 84.4072C257.326 85.1387 258.62 85.5223 259.94 85.5102C261.742 85.4373 263.445 84.6532 264.687 83.3242C265.93 81.9952 266.614 80.2259 266.595 78.3919ZM291.277 77.947H284.507V79.804H289.356V83.9337C288.005 84.9483 286.377 85.5095 284.698 85.5392C282.89 85.4713 281.179 84.6932 279.924 83.3684C278.669 82.0436 277.967 80.2754 277.967 78.4354C277.967 76.5955 278.669 74.8273 279.924 73.5025C281.179 72.1777 282.89 71.3995 284.698 71.3317C286.666 71.3512 288.553 72.1328 289.974 73.5175L291.277 72.1634C289.487 70.4765 287.138 69.5373 284.698 69.5328C282.375 69.5328 280.148 70.4712 278.506 72.1417C276.864 73.8122 275.941 76.0779 275.941 78.4403C275.941 80.8027 276.864 83.0683 278.506 84.7388C280.148 86.4093 282.375 87.3478 284.698 87.3478C287.135 87.3301 289.48 86.3927 291.277 84.7171V77.947ZM308.476 80.6744L312.859 87.0383H310.662L306.374 80.8485H301.896V87.0383H299.995V69.8229H306.869C310.358 69.8229 313.096 72.1054 313.096 75.3357C313.07 76.6373 312.591 77.8874 311.746 78.8645C310.9 79.8417 309.742 80.4828 308.476 80.6744ZM301.896 78.9915H306.498C309.255 78.9915 311.128 77.6375 311.128 75.3357C311.128 73.0339 309.227 71.6799 306.498 71.6799H301.896V78.9915ZM323.545 83.1116H332.976L334.716 86.9803H336.77L329.306 69.7649H327.215L319.751 86.9803H321.843L323.545 83.1116ZM328.28 72.2118L332.187 81.2547H324.334L328.28 72.2118ZM344.433 69.8036H351.307C354.805 69.8036 357.534 72.0861 357.534 75.3164C357.534 78.5467 354.805 80.8292 351.307 80.8292H346.353V87.0189H344.452L344.433 69.8036ZM350.964 78.9722C353.721 78.9722 355.594 77.6182 355.594 75.3164C355.594 73.0145 353.693 71.6605 350.964 71.6605H346.353V78.9722H350.964ZM379.04 87.0189V69.8036H377.119V77.3184H367.146V69.8036H365.244V87.0189H367.146V79.1753H377.138V87.0189H379.04ZM393.177 79.9974L386.36 69.8036H388.747L394.185 78.1501L399.68 69.8036H402L395.202 79.9974V87.0189H393.177V79.9974ZM161.472 55.7479H399.775V54.7479H161.472V55.7479Z" fill="black"/>
</svg>
