<svg width="53" height="33" viewBox="0 0 53 33" fill="none" xmlns="http://www.w3.org/2000/svg">
<path d="M29.7774 12.3535C29.7423 10.6958 30.0495 9.04892 30.6794 7.5181C31.2776 6.04728 32.1463 4.70455 33.2393 3.5611C34.3093 2.43685 35.586 1.53455 36.9977 0.904795C38.4185 0.262686 39.9648 -0.0448807 41.5203 0.00528262C43.069 -0.0332741 44.6077 0.267584 46.0306 0.887204C47.4536 1.50682 48.727 2.43052 49.7636 3.59488C51.924 5.98513 53.0028 9.04544 53 12.7758C53 17.5141 51.2029 21.8413 47.6088 25.7575C44.0673 29.6311 39.3369 32.1829 34.1831 33L33.5567 32.5777C35.1205 31.6291 36.4242 30.2991 37.3485 28.7094C38.312 27.159 38.8961 25.3985 39.0522 23.5741C32.8662 21.7188 29.7746 17.9786 29.7774 12.3535ZM0.00270481 12.3535C-0.0324027 10.6958 0.274825 9.04892 0.90473 7.51809C1.50294 6.04728 2.37158 4.70455 3.4646 3.5611C4.5346 2.43685 5.81125 1.53455 7.22298 0.904792C8.64376 0.262684 10.1901 -0.0448833 11.7455 0.00528001C13.2943 -0.0332767 14.833 0.267582 16.256 0.887201C17.6789 1.50682 18.9523 2.43052 19.9889 3.59488C22.1493 5.98512 23.2281 9.04543 23.2253 12.7758C23.2253 17.5141 21.4283 21.8413 17.8341 25.7575C14.2926 29.6311 9.5622 32.1829 4.40838 33L3.78198 32.5777C5.34579 31.6291 6.64944 30.2991 7.57374 28.7094C8.53733 27.159 9.12145 25.3985 9.27758 23.5741C3.09157 21.7188 -7.96596e-05 17.9786 0.00270481 12.3535V12.3535Z" fill="#76C6E3"/>
</svg>
