<svg width="53" height="33" viewBox="0 0 53 33" fill="none" xmlns="http://www.w3.org/2000/svg">
<path d="M23.2226 20.6465C23.2577 22.3042 22.9505 23.9511 22.3206 25.4819C21.7224 26.9527 20.8537 28.2954 19.7607 29.4389C18.6907 30.5631 17.414 31.4654 16.0023 32.0952C14.5815 32.7373 13.0352 33.0449 11.4798 32.9947C9.93098 33.0333 8.39231 32.7324 6.96937 32.1128C5.54644 31.4932 4.27296 30.5695 3.23638 29.4051C1.07601 27.0149 -0.00277861 23.9546 5.37448e-06 20.2242C5.37448e-06 15.4859 1.79708 11.1587 5.3912 7.24253C8.93271 3.36889 13.6631 0.817059 18.8169 0L19.4433 0.422305C17.8795 1.37094 16.5758 2.70092 15.6515 4.29062C14.688 5.84103 14.1039 7.60146 13.9478 9.42585C20.1338 11.2812 23.2254 15.0214 23.2226 20.6465ZM52.9973 20.6465C53.0324 22.3042 52.7252 23.9511 52.0953 25.4819C51.4971 26.9527 50.6284 28.2954 49.5354 29.4389C48.4654 30.5631 47.1888 31.4654 45.777 32.0952C44.3562 32.7373 42.8099 33.0449 41.2545 32.9947C39.7057 33.0333 38.167 32.7324 36.744 32.1128C35.3211 31.4932 34.0477 30.5695 33.0111 29.4051C30.8507 27.0149 29.7719 23.9546 29.7747 20.2242C29.7747 15.4859 31.5717 11.1587 35.1659 7.24253C38.7074 3.36889 43.4378 0.817059 48.5916 0L49.218 0.422305C47.6542 1.37094 46.3506 2.70092 45.4263 4.29062C44.4627 5.84103 43.8786 7.60146 43.7224 9.42585C49.9084 11.2812 53.0001 15.0214 52.9973 20.6465V20.6465Z" fill="#76C6E3"/>
</svg>
