<svg width="59" height="60" viewBox="0 0 59 60" fill="none" xmlns="http://www.w3.org/2000/svg">
<path fill-rule="evenodd" clip-rule="evenodd" d="M45.685 59.0044H12.9738C12.8851 58.9859 12.7967 58.9662 12.7084 58.9465L12.7079 58.9464L12.7077 58.9463C12.5179 58.904 12.3286 58.8618 12.1372 58.8313C5.34147 57.73 0.0217739 51.5371 0.0103139 44.6612C0.00150555 39.2006 0.00236908 33.74 0.00323265 28.2793C0.00394201 23.7936 0.00465139 19.3078 0 14.8218C0.000205649 13.9269 0.0927572 13.0344 0.276184 12.1585C1.69607 5.30434 7.76181 0.3972 14.5461 0.399492C24.4016 0.404076 34.2529 0.404076 44.1001 0.399492C44.7282 0.387863 45.3563 0.426184 45.9784 0.514091C51.0104 1.32316 54.7039 3.99791 57.1014 8.47988C57.9127 10.0132 58.323 11.6726 58.6095 13.3687V46.0799C58.6004 46.1233 58.591 46.1667 58.5816 46.2102C58.559 46.3147 58.5364 46.4193 58.5178 46.5245C57.601 51.7331 54.7475 55.4724 49.9951 57.7679C48.6325 58.4268 47.1645 58.7431 45.685 59.0044ZM53.6519 29.7243V15.3707C53.6539 14.8571 53.6233 14.3438 53.5602 13.834C52.946 9.05861 48.8479 5.41092 44.0279 5.40633C34.2296 5.39564 24.4318 5.39335 14.6343 5.39946C14.0439 5.4023 13.4553 5.46488 12.8775 5.58625C8.21104 6.53628 5.01142 10.4407 5.00913 15.2C5.00455 24.8836 5.00455 34.5673 5.00913 44.2509C5.01165 44.7074 5.04342 45.1633 5.10425 45.6158C5.71163 50.3648 9.81199 54.0377 14.5793 54.0434C24.4158 54.0556 34.2518 54.0579 44.0875 54.0503C44.6588 54.046 45.2282 53.9838 45.787 53.8646C50.4626 52.9054 53.6485 49.0136 53.6531 44.2497C53.6561 39.4075 53.6557 34.5657 53.6519 29.7243ZM44.0118 29.7132C44.1127 37.7902 37.3513 44.4381 29.3099 44.4289C21.288 44.4186 14.6011 37.7821 14.6263 29.6765C14.6515 21.6466 21.2731 15.0136 29.3477 15.0216C37.396 15.0308 44.0966 21.6706 44.0118 29.7132ZM29.3431 20.0422C24.0131 20.0422 19.6515 24.382 19.6457 29.6949C19.6457 35.0318 23.9765 39.4003 29.2835 39.406C30.5581 39.4096 31.8209 39.162 32.9997 38.6773C34.1785 38.1926 35.2502 37.4804 36.1536 36.5813C37.0569 35.6821 37.7742 34.6138 38.2645 33.4373C38.7547 32.2608 39.0083 30.9992 39.0107 29.7247C39.0107 24.4004 34.6628 20.0445 29.3443 20.0422H29.3431ZM45.183 17.5955C47.2229 17.6069 48.9259 15.896 48.9259 13.8458C48.9167 11.8323 47.216 10.1339 45.2025 10.1282C43.1523 10.1282 41.4402 11.8472 41.462 13.8802C41.4768 14.8619 41.8738 15.7992 42.5686 16.4929C43.2634 17.1866 44.2013 17.5822 45.183 17.5955Z" fill="white"/>
</svg>
