<svg width="60" height="61" viewBox="0 0 60 61" fill="none" xmlns="http://www.w3.org/2000/svg">
<path d="M45.7169 60.0046H14.3421C13.9033 59.9231 13.4606 59.8531 13.0256 59.7638C5.47613 58.179 -0.0539715 51.3195 0.000397403 43.7996C0.0703003 34.6327 0.0275819 25.462 0.000397403 16.2952C-0.00924979 14.3042 0.350227 12.3287 1.0606 10.4688C3.35962 4.44043 9.45282 -0.0186743 16.0548 0.00463116C25.3752 0.0318209 34.6956 0.00463116 44.0159 0.00463116C44.6783 -0.00776679 45.3405 0.0324962 45.9965 0.125042C51.5421 1.01842 55.5965 4.00929 58.2722 8.89567C59.1459 10.5986 59.725 12.4373 59.9849 14.3336V45.7145C59.9538 45.8465 59.9188 45.9786 59.8955 46.1029C58.9014 51.8749 55.7247 56.0077 50.4975 58.5908C48.9797 59.2881 47.3698 59.7643 45.7169 60.0046ZM56.0858 29.1248C56.0043 25.2212 56.2917 20.3387 55.9732 15.4678C55.6431 10.3872 52.9014 6.92248 48.3188 4.88325C46.7056 4.22724 44.9718 3.92012 43.2315 3.9821C35.0166 3.96656 26.8043 3.96656 18.5946 3.9821C17.5616 3.9821 16.5286 3.9821 15.4878 4.05979C10.3383 4.50648 6.85477 7.20991 4.81982 11.8827C4.12855 13.4674 3.9771 15.1649 3.97322 16.8662C3.95768 24.9791 3.95768 33.0958 3.97322 41.2165C3.97322 42.3468 3.9538 43.4733 4.05477 44.6075C4.50914 49.7269 7.19652 53.1994 11.8489 55.2309C13.4489 55.9339 15.1654 56.0893 16.8975 56.0893C25.0088 56.1048 33.124 56.1048 41.2431 56.0893C42.3538 56.0893 43.4645 56.0893 44.5752 56.0155C49.1538 55.6581 52.4703 53.3781 54.6723 49.4123C55.7286 47.5206 56.0703 45.4503 56.0781 43.3218C56.1014 38.9093 56.0858 34.4968 56.0858 29.1248Z" fill="white"/>
<path d="M49.3861 29.5947C49.3562 32.7705 48.5342 35.8887 46.9945 38.6663C45.4548 41.444 43.2462 43.7933 40.569 45.5011C37.8918 47.209 34.8308 48.2213 31.6634 48.4465C28.496 48.6716 25.3225 48.1023 22.4308 46.7903C22.2664 46.7116 22.0881 46.6663 21.9061 46.6569C21.7242 46.6476 21.5421 46.6744 21.3706 46.7359C18.8852 47.536 16.3958 48.3284 13.9026 49.1131C13.7356 49.1674 13.5648 49.214 13.3978 49.2645C13.0404 49.4043 12.6501 49.4372 12.2744 49.3593C11.8987 49.2814 11.5536 49.096 11.2813 48.8256C10.9903 48.5452 10.7902 48.1839 10.7071 47.7884C10.624 47.3929 10.6617 46.9815 10.8153 46.6077C11.4793 44.6267 12.0657 42.6186 12.8463 40.6881C13.4172 39.2704 13.2852 38.0973 12.7337 36.6602C9.92982 29.3539 11.1259 22.638 16.357 16.8194C20.3648 12.3642 25.5415 10.3716 31.5026 10.7056C35.1702 10.9104 38.6989 12.178 41.6585 14.3541C44.6181 16.5301 46.8808 19.5204 48.1706 22.9604C48.9906 25.0753 49.4031 27.3264 49.3861 29.5947ZM30.357 14.7375C29.8871 14.7375 29.4211 14.7375 28.9512 14.7375C28.6996 14.7588 28.4494 14.7938 28.2017 14.8423C24.9547 15.2659 21.945 16.771 19.658 19.115C14.8502 23.9897 13.9376 31.028 17.289 36.9825C17.5025 37.3278 17.6336 37.7177 17.672 38.1219C17.7104 38.5261 17.6551 38.9337 17.5104 39.3131C16.9939 40.7425 16.5201 42.1874 16.0386 43.6285C15.9881 43.78 15.8172 43.9664 15.9958 44.1101C16.1745 44.2539 16.291 44.1101 16.4386 44.0519C17.9453 43.5741 19.456 43.1196 20.9512 42.6108C21.3615 42.4607 21.7993 42.4008 22.2349 42.435C22.6704 42.4691 23.0935 42.5967 23.4755 42.8089C26.2478 44.2138 29.3859 44.7294 32.4619 44.2852C35.5378 43.841 38.402 42.4587 40.6638 40.3269C44.6172 36.5087 46.1007 31.8281 44.9978 26.464C44.2832 23.1235 42.436 20.1328 39.7692 17.9986C37.1024 15.8643 33.78 14.7177 30.3648 14.753L30.357 14.7375Z" fill="white"/>
<path d="M25.072 21.8067C25.8215 21.6669 26.2371 22.0631 26.505 22.7506C26.8507 23.6401 27.2079 24.5257 27.6157 25.3919C27.7479 25.6423 27.8005 25.9271 27.7665 26.2082C27.7325 26.4894 27.6135 26.7534 27.4254 26.965C27.2584 27.1825 27.0876 27.3962 26.9089 27.6021C26.3147 28.309 26.3186 28.309 26.839 29.1091C28.0665 31.0286 29.8471 32.5305 31.9458 33.4168C32.505 33.6576 32.8973 33.6149 33.2545 33.1099C33.5458 32.6982 33.8953 32.3331 34.1982 31.9213C34.3096 31.7332 34.4886 31.5948 34.6986 31.5341C34.9086 31.4735 35.1338 31.4953 35.3283 31.595C36.4429 32.1039 37.5497 32.636 38.6565 33.1487C38.8075 33.222 38.9307 33.3422 39.0077 33.4913C39.0848 33.6405 39.1114 33.8105 39.0837 33.9761C39.0914 34.5742 38.9342 35.1629 38.6293 35.6775C38.3245 36.1921 37.8837 36.6127 37.3555 36.8932C36.7933 37.225 36.17 37.4403 35.5229 37.5264C34.8758 37.6125 34.2179 37.5675 33.5885 37.3942C28.6021 36.1474 25.1769 32.9701 22.7342 28.6081C21.5031 26.4057 21.7439 24.18 23.1924 22.5681C23.4126 22.2888 23.7017 22.0717 24.0313 21.9382C24.3609 21.8047 24.7196 21.7594 25.072 21.8067Z" fill="white"/>
</svg>
