<svg width="61" height="61" viewBox="0 0 61 61" fill="none" xmlns="http://www.w3.org/2000/svg">
<path fill-rule="evenodd" clip-rule="evenodd" d="M60.0025 46.3035V13.7505C59.7303 11.851 59.3009 9.99609 58.4127 8.27376C56.0756 3.73915 52.3482 1.12163 47.356 0.229957C46.2344 0.0293316 45.1092 0.00234653 43.9782 0.00234653C34.4358 -0.00234647 24.8934 -4.71522e-08 15.3509 0.00938574C11.8066 0.0129055 8.57659 1.02425 5.76783 3.21119C2.6728 5.62222 0.894153 8.82519 0.230094 12.6758C0.0294679 13.8373 0.00248289 14.9988 0.00248289 16.1721C-0.00221011 25.677 -0.000248961 35.1803 0.00835487 44.6821C0.0107014 48.2276 1.01852 51.4541 3.20076 54.2699C5.60593 57.3708 8.80538 59.1588 12.6572 59.8158L13.7495 60.0035H46.3024C48.1585 59.7348 49.9747 59.3266 51.663 58.4713C56.268 56.1424 58.9372 52.3938 59.8195 47.3359C59.8639 47.1035 59.904 46.871 59.9442 46.6381C59.9635 46.5267 59.9827 46.4151 60.0025 46.3035ZM16.9571 3.96441H30.0107C31.3 3.96441 32.5894 3.96313 33.8788 3.96184C37.1949 3.95853 40.5112 3.95522 43.8269 3.9738C45.5445 3.98319 47.2563 4.13219 48.8836 4.7634C52.8726 6.31326 55.1476 9.2546 55.8633 13.4337C56.0674 14.6257 56.0909 15.8377 56.0909 17.0473C56.101 25.9453 56.0979 34.8432 56.0815 43.7411C56.078 45.4587 55.9383 47.1705 55.3189 48.8025C53.7819 52.8514 50.8218 55.1533 46.5922 55.869C45.4413 56.0649 44.268 56.0931 43.0948 56.0931C34.1398 56.1025 25.1839 56.1001 16.2274 56.086C13.76 56.0813 11.3689 55.6942 9.22188 54.359C6.35915 52.578 4.75063 49.9664 4.19568 46.6813C3.98919 45.474 3.96103 44.2397 3.96103 43.0102C3.95087 34.1115 3.95399 25.2131 3.97041 16.3152C3.97393 14.5988 4.11355 12.8858 4.73303 11.255C6.27116 7.20611 9.22892 4.90302 13.4597 4.18733C14.6106 3.99257 15.7839 3.96441 16.9571 3.96441ZM47 40.2194V19.8546C46.8115 19.2323 46.5369 18.664 46.0281 18.2376C45.4921 17.7712 44.8032 17.5181 44.0927 17.5265H30.0073H17.1382C15.7014 17.5265 14.585 18.4169 14.2446 19.8143C14.2019 20.0127 14.1831 20.2155 14.1888 20.4183C14.1845 26.8308 14.1845 33.2435 14.1888 39.6566C14.1855 40.0365 14.2578 40.4133 14.4014 40.7651C14.5451 41.1168 14.7572 41.4365 15.0256 41.7055C15.2939 41.9745 15.613 42.1874 15.9644 42.332C16.3157 42.4765 16.6923 42.5498 17.0723 42.5475H44.1229C44.7413 42.5529 45.345 42.3586 45.8441 41.9934C46.3432 41.6282 46.711 41.1116 46.8929 40.5205C46.9157 40.4502 46.9411 40.3808 46.9665 40.3117C46.9777 40.2809 46.989 40.2502 47 40.2194ZM17.8062 19.7091C17.7549 19.6587 17.7101 19.6066 17.6332 19.5151H43.5317C43.5623 19.5982 43.509 19.6399 43.4588 19.6793C43.4444 19.6906 43.4301 19.7018 43.4183 19.7137C39.2441 23.8829 35.0728 28.0564 30.9041 32.2342C30.7312 32.4071 30.6232 32.4291 30.4402 32.2461C26.227 28.0677 22.0157 23.8887 17.8062 19.7091ZM43.5377 40.4896C43.5529 40.5091 43.5713 40.5328 43.5949 40.5626L17.6799 40.5635C17.6498 40.4738 17.704 40.4308 17.7544 40.3909C17.7683 40.3798 17.7819 40.3691 17.7934 40.3576C20.7071 37.4469 23.618 34.5326 26.5263 31.6146C26.6974 31.4417 26.798 31.449 26.9646 31.6146C27.6912 32.3426 28.4238 33.0651 29.1566 33.7876C29.3661 33.9942 29.5756 34.2008 29.785 34.4076C30.421 35.0362 30.9179 35.0399 31.5438 34.4149C32.458 33.5044 33.3731 32.5892 34.2809 31.6741C34.4346 31.5186 34.538 31.4673 34.7211 31.6503C37.639 34.5726 40.5576 37.4939 43.4768 40.4143C43.4939 40.4331 43.5105 40.4546 43.5377 40.4896ZM16.272 39.0349C16.242 39.0608 16.208 39.0903 16.1681 39.1259L16.1672 21.0104C16.2701 20.987 16.3179 21.0471 16.3628 21.1034C16.3758 21.1198 16.3886 21.1359 16.4024 21.1495C19.2942 24.0198 22.1886 26.8872 25.0859 29.7515C25.2698 29.9336 25.2899 30.0379 25.095 30.2328C22.1966 33.127 19.2987 36.0218 16.4015 38.9172C16.3648 38.9545 16.3247 38.9893 16.272 39.0349ZM44.9207 21.0418C44.956 21.0191 44.9956 21.004 45.0371 20.9976V39.0673C44.9337 39.068 44.8838 39.0079 44.8366 38.951C44.8237 38.9354 44.8109 38.92 44.7973 38.9062C41.9306 36.0389 39.0614 33.1716 36.1898 30.3042C36.0132 30.1285 35.9327 30.0178 36.155 29.7954C39.0486 26.9079 41.941 24.0192 44.8321 21.1293C44.8552 21.0943 44.8854 21.0645 44.9207 21.0418Z" fill="white"/>
</svg>
