<svg width="60" height="61" viewBox="0 0 60 61" fill="none" xmlns="http://www.w3.org/2000/svg">
<path fill-rule="evenodd" clip-rule="evenodd" d="M60 46.7031V14.1476C59.7266 12.2467 59.2972 10.3929 58.4219 8.67157C56.0846 4.13543 52.3569 1.5177 47.3643 0.625965C46.2426 0.425323 45.1173 0.399511 43.9851 0.399511C34.4419 0.394035 24.8987 0.395989 15.3555 0.405376C11.8109 0.408896 8.57947 1.42149 5.77167 3.6086C2.67639 6.01982 0.897607 9.22187 0.233495 13.0739C0.0328538 14.2344 0.00586671 15.396 0.00586671 16.5693C-0.00195557 26.0734 -0.00195557 35.5775 0.00586671 45.0815C0.00821339 48.6262 1.01611 51.8529 3.19736 54.6689C5.60388 57.7712 8.80358 59.5582 12.6557 60.2153L13.7434 60.4042H46.2989C48.1551 60.1343 49.9715 59.726 51.6599 58.8718C56.2641 56.5416 58.9346 52.7927 59.8158 47.7356C59.8525 47.5239 59.8906 47.3127 59.9286 47.1016C59.9525 46.9687 59.9764 46.8359 60 46.7031ZM16.9513 4.35954H30.0059C31.2954 4.35954 32.585 4.35825 33.8745 4.35696C37.1903 4.35365 40.5062 4.35034 43.822 4.36892C45.5409 4.37831 47.2528 4.52733 48.8791 5.15976C52.8696 6.70857 55.1447 9.65014 55.8604 13.8296C56.0646 15.0229 56.0869 16.2338 56.0869 17.4446C56.0986 26.3433 56.0955 35.2419 56.0775 44.1405C56.0752 45.8571 55.9355 47.5702 55.316 49.2023C53.7778 53.2515 50.8186 55.5524 46.5875 56.2693C45.4377 56.4641 44.2643 56.4923 43.091 56.4923C34.1353 56.5032 25.1787 56.5009 16.2214 56.4852C13.7527 56.4817 11.3626 56.0945 9.21542 54.7581C6.3513 52.977 4.74265 50.3663 4.18883 47.0809C3.98115 45.8724 3.95416 44.638 3.95416 43.4083C3.94243 34.5097 3.94556 25.6111 3.96355 16.7125C3.96707 14.9947 4.10552 13.2828 4.72622 11.6507C6.2633 7.60148 9.22247 5.29821 13.4535 4.58365C14.6046 4.3877 15.7779 4.35954 16.9513 4.35954ZM11.4951 19.951V30.8948C11.4951 31.8346 11.4956 32.7746 11.4961 33.7148V33.7153V33.7159V33.7165V33.7165C11.4976 36.5391 11.4992 39.3633 11.4869 42.1882C11.4845 42.7385 11.6676 42.9696 12.2272 42.9532C12.7112 42.9385 13.1977 42.9421 13.6851 42.9457H13.6852H13.6853C14.0179 42.9482 14.3511 42.9507 14.6842 42.9473C15.4853 42.9395 16.2869 42.9465 17.0885 42.9536C19.1537 42.9718 21.2188 42.9901 23.2754 42.7526C26.021 42.4346 28.1988 41.2401 29.1762 38.4816C30.3448 35.1857 29.2771 31.8229 25.9495 30.4266C25.9067 30.4087 25.8574 30.3956 25.8077 30.3823C25.6743 30.3466 25.5375 30.3101 25.5153 30.1802C25.4845 30.0045 25.6271 29.9427 25.7643 29.8833C25.8149 29.8614 25.8647 29.8398 25.9049 29.8129C28.4158 28.1327 29.1902 25.0703 27.7822 22.3974C26.5033 19.9745 24.2962 19.1778 21.7595 19.0358C19.6455 18.9173 17.5294 18.9327 15.413 18.948H15.413H15.413C14.4281 18.9552 13.4432 18.9623 12.4584 18.956C11.5092 18.949 11.4951 18.9724 11.4951 19.951ZM14.8356 39.3757V35.9835V35.9812C14.8356 35.6215 14.8364 35.2617 14.8372 34.9021L14.8372 34.9012C14.839 34.1304 14.8408 33.3601 14.8344 32.5914C14.8297 32.1901 14.9459 31.9602 15.3941 31.9707C16.2202 31.9888 17.0471 31.9784 17.8739 31.968H17.874H17.8741H17.8741C19.4638 31.9481 21.0533 31.9282 22.6371 32.1103C24.1003 32.2781 25.3088 32.9012 25.8955 34.3326C26.5045 35.8193 26.339 37.2273 25.3429 38.518C24.66 39.4015 23.6767 39.7382 22.6383 39.8556C21.0542 40.0379 19.4635 40.0152 17.8726 39.9924C17.0267 39.9803 16.1806 39.9682 15.3354 39.987C14.8942 39.9964 14.8356 39.7277 14.8356 39.3757ZM14.8386 26.2839C14.8371 25.9971 14.8356 25.7103 14.8356 25.4235L14.8344 25.4188C14.8368 24.4441 14.8375 23.4699 14.8367 22.496C14.8367 22.2003 14.8696 21.9269 15.2521 21.9269C15.7301 21.926 16.2083 21.9204 16.6866 21.9148H16.6868H16.687H16.6871C18.5866 21.8925 20.4869 21.8703 22.3708 22.1393C24.4288 22.4326 25.3194 23.7245 25.1868 25.9902C25.0941 27.5707 23.7682 28.7253 21.9695 28.8719C20.5717 28.9888 19.1733 28.9834 17.7752 28.9781H17.7751H17.7751C17.0115 28.9752 16.2479 28.9723 15.4844 28.9893C15.0092 28.9998 14.8168 28.8344 14.8285 28.3474C14.8459 27.6601 14.8423 26.9721 14.8386 26.284V26.2839ZM42.0806 35.0355H36.5788C35.6624 35.0355 35.6612 35.0355 35.7832 35.9354C35.9804 37.3916 36.5037 38.6857 37.6676 39.6467C40.1446 41.693 43.6517 40.901 44.9423 37.9606C45.2157 37.3411 45.5548 37.2062 46.1415 37.3047C46.7282 37.4033 47.2984 37.4772 47.8792 37.5253C48.3145 37.5617 48.4049 37.7389 48.2735 38.1378C47.5589 40.319 46.2283 41.9523 44.0342 42.7385C41.5631 43.6243 39.0874 43.5692 36.7031 42.424C34.8892 41.5522 33.6841 40.0773 33.0716 38.1836C32.1811 35.4227 32.2081 32.6395 33.2723 29.9326C34.6216 26.5018 37.9222 24.8673 41.4493 25.1806C45.1794 25.5126 48.1374 28.324 48.4518 32.8871C48.462 33.0359 48.4747 33.1847 48.4875 33.3335L48.4875 33.3342C48.5131 33.6322 48.5386 33.9302 48.5433 34.2282C48.5539 34.9733 48.4882 35.0331 47.7595 35.0343C45.8681 35.0382 43.9751 35.0386 42.0806 35.0355ZM40.5083 32.4929C40.8978 32.4929 41.2874 32.4917 41.6769 32.4906C42.6508 32.4877 43.6247 32.4848 44.5986 32.4999C45.1043 32.5081 45.2521 32.2993 45.1923 31.8276C44.8802 29.4081 43.1155 27.7936 40.7113 27.7408C38.2566 27.688 36.1352 29.5184 35.9006 31.8592C35.8536 32.3403 35.9628 32.5151 36.4732 32.5034C37.4166 32.4829 38.3577 32.4865 39.2982 32.4901H39.2992H39.2995C39.7025 32.4917 40.1054 32.4932 40.5083 32.4929ZM39.2772 23.6667C39.6755 23.668 40.0737 23.6693 40.4719 23.6693C40.8724 23.6693 41.273 23.668 41.6735 23.6666C42.7152 23.6631 43.7572 23.6595 44.8004 23.6799C45.3425 23.6904 45.5361 23.4769 45.5044 22.9583C45.4889 22.6639 45.4872 22.3685 45.4855 22.0731C45.4846 21.9199 45.4837 21.7667 45.4809 21.6136C45.475 21.2816 45.3166 21.1302 44.9705 21.1302C41.9887 21.1365 39.0072 21.1365 36.0261 21.1302C35.6765 21.129 35.5263 21.2898 35.5204 21.6183C35.5172 21.7729 35.5167 21.9275 35.5163 22.0821C35.5154 22.376 35.5146 22.6696 35.4946 22.9618C35.4582 23.4898 35.6683 23.6881 36.2045 23.6787C37.2284 23.6601 38.2529 23.6634 39.2772 23.6667Z" fill="white"/>
</svg>
